HIERARCHY
ROOT hip
{
	OFFSET 0.000000 0.000000 0.000000 
	CHANNELS 6 Xposition Yposition Zposition Xrotation Zrotation Yrotation
	JOINT abdomen
	{
		OFFSET 0.000000 3.402643 0.000000 
		CHANNELS 3 Xrotation Zrotation Yrotation
		JOINT chest
		{
			OFFSET 0.000000 8.438565 -0.680529 
			CHANNELS 3 Xrotation Zrotation Yrotation
			JOINT neck
			{
				OFFSET 0.000000 10.207942 -0.272212 
				CHANNELS 3 Xrotation Zrotation Yrotation
				JOINT head
				{
					OFFSET 0.000000 3.130431 0.000000 
					CHANNELS 3 Xrotation Zrotation Yrotation
					End Site
					{
						OFFSET 0.000000 3.130435 0.000000 
					}
				}
			}
			JOINT lCollar
			{
				OFFSET 3.470700 6.669187 -0.816635 
				CHANNELS 3 Yrotation Zrotation Xrotation
				JOINT lShldr
				{
					OFFSET 3.198488 0.000000 0.000000 
					CHANNELS 3 Zrotation Yrotation Xrotation
					JOINT lForeArm
					{
						OFFSET 10.139888 0.000000 0.000000 
						CHANNELS 3 Yrotation Zrotation Xrotation
						JOINT lHand
						{
							OFFSET 8.370511 0.000000 0.000000 
							CHANNELS 3 Zrotation Yrotation Xrotation
							End Site
							{
								OFFSET 4.083176 0.000000 0.000000 
							}
						}
					}
				}
			}
			JOINT rCollar
			{
				OFFSET -3.470700 6.669187 -0.816635 
				CHANNELS 3 Yrotation Zrotation Xrotation
				JOINT rShldr
				{
					OFFSET -3.198488 0.000000 0.000000 
					CHANNELS 3 Zrotation Yrotation Xrotation
					JOINT rForeArm
					{
						OFFSET -10.139888 0.000000 0.000000 
						CHANNELS 3 Yrotation Zrotation Xrotation
						JOINT rHand
						{
							OFFSET -8.370511 0.000000 0.000000 
							CHANNELS 3 Zrotation Yrotation Xrotation
							End Site
							{
								OFFSET -4.083176 0.000000 0.000000 
							}
						}
					}
				}
			}
		}
	}
	JOINT lThigh
	{
		OFFSET 5.308129 -1.633274 1.361059 
		CHANNELS 3 Xrotation Zrotation Yrotation
		JOINT lShin
		{
			OFFSET -2.041588 -20.007561 0.000000 
			CHANNELS 3 Xrotation Zrotation Yrotation
			JOINT lFoot
			{
				OFFSET 0.000000 -19.190928 -1.224953 
				CHANNELS 3 Xrotation Yrotation Zrotation
				End Site
				{
					OFFSET 0.000000 -2.449906 4.627600 
				}
			}
		}
	}
	JOINT rThigh
	{
		OFFSET -5.308129 -1.633274 1.361059 
		CHANNELS 3 Xrotation Zrotation Yrotation
		JOINT rShin
		{
			OFFSET 2.041588 -20.007561 0.000000 
			CHANNELS 3 Xrotation Zrotation Yrotation
			JOINT rFoot
			{
				OFFSET 0.000000 -19.190928 -1.224953 
				CHANNELS 3 Xrotation Yrotation Zrotation
				End Site
				{
					OFFSET 0.000000 -2.449906 4.627600 
				}
			}
		}
	}
}
MOTION
Frames: 20
Frame Time: 0.011111
31.235060 51.256001 -68.759781 3.809377 -1.112047 -4.165297 17.939405 2.178819 -5.409704 -28.230909 -1.124793 -1.475943 -5.869976 14.836659 8.691078 27.151077 -31.581985 13.320765 -1.931697 -12.150426 0.122601 -54.906464 -7.297361 4.414837 -51.595993 8.046394 8.794929 8.524705 12.647240 -26.458384 4.400109 13.372850 -0.765886 55.883244 9.819586 7.620303 49.808857 -7.661193 8.081939 -8.534408 -12.637552 28.265484 -9.518480 22.814909 2.641634 28.304394 -5.410707 -4.644310 -23.528996 1.237989 -1.909333 -11.851975 -13.725814 -4.578685 35.713223 4.950394 5.557012 -30.690048 2.934841 3.271760 
31.103832 51.290348 -68.763496 3.984528 -1.096561 -4.207653 17.643656 2.297301 -5.356003 -28.210957 -1.026193 -1.479287 -5.950476 14.782954 8.710856 27.201784 -31.677509 13.331323 -1.931697 -12.150426 0.122601 -55.692295 -7.371404 3.818860 -51.093071 7.940478 8.591029 8.524705 12.647240 -26.438852 4.400109 13.372850 -0.765886 55.621754 9.936437 7.679961 49.903469 -7.686491 8.120340 -8.534408 -12.637552 28.460796 -9.598240 22.965071 2.608735 28.053194 -5.430314 -4.597023 -23.176760 1.269296 -1.925193 -12.015925 -13.557240 -4.566708 35.633732 4.960785 5.533149 -30.558649 2.785874 3.192784 
30.965485 51.303043 -68.765038 3.974629 -1.162089 -4.260925 17.600868 2.487067 -5.404222 -28.346981 -0.907745 -1.522615 -5.865743 14.825394 8.793247 27.202616 -31.895975 13.452907 -1.931697 -12.150426 0.122601 -56.539249 -7.174730 3.312666 -50.820755 7.880628 8.481791 8.524705 12.647240 -25.891979 4.400109 13.372850 -0.765886 55.410839 10.027864 7.768244 49.945347 -7.697180 8.139287 -8.534408 -12.637552 28.411968 -9.442021 23.209074 2.842791 27.792465 -5.439430 -4.585152 -22.874487 1.189271 -2.011132 -12.038593 -13.317165 -4.536896 35.732944 4.950443 5.558750 -30.606678 2.800295 3.193698 
30.819403 51.314182 -68.770309 4.033153 -0.861931 -4.152952 17.449034 2.211650 -5.720281 -28.346153 -0.759309 -1.591621 -5.627148 14.804087 8.879500 26.732471 -32.003925 13.635038 -1.931697 -12.150426 0.122601 -57.242619 -7.138024 2.965004 -50.643223 7.843163 8.409932 8.524705 12.647240 -24.690807 4.400109 13.372850 -0.765886 55.287315 10.361168 7.484750 49.726128 -7.645856 8.050288 -8.534408 -12.637552 28.011580 -9.401185 23.067688 2.949272 27.592754 -5.449690 -4.531246 -22.698359 0.732207 -2.219678 -12.195982 -13.523742 -4.697593 35.872482 4.935082 5.575878 -30.695107 3.072821 3.326314 
30.701481 51.314800 -68.786087 4.043472 -0.522928 -3.953061 17.386524 1.910761 -5.998361 -28.345448 -0.608294 -1.641267 -5.547246 14.718289 8.941730 26.297768 -31.910633 13.865275 -1.931697 -12.150426 0.122601 -57.909225 -7.266023 2.499921 -50.486263 7.806779 8.340750 8.524705 12.647240 -23.636120 4.400109 13.372850 -0.765886 55.139572 10.633842 7.311758 49.569359 -7.606637 7.982728 -8.534408 -12.637552 28.109236 -9.411377 22.824902 2.784484 27.403271 -5.449215 -4.524242 -22.412525 0.569232 -2.309732 -12.312038 -13.824822 -4.923894 36.051544 4.921499 5.587285 -30.905907 3.127007 3.351948 
30.603060 51.302116 -68.801567 3.946426 -0.399985 -3.845313 17.549063 1.839762 -6.119730 -28.481627 -0.498707 -1.674898 -5.781048 14.643798 8.995592 26.375006 -31.609699 14.079566 -1.931697 -12.150426 0.122601 -58.637802 -7.318821 1.947317 -50.297928 7.764441 8.271548 8.524705 12.647240 -22.757215 4.400109 13.372850 -0.765886 54.928814 10.725358 7.622939 49.620876 -7.615751 8.004410 -8.534408 -12.637552 28.743998 -9.333688 22.806351 2.646974 27.342201 -5.459835 -4.501111 -22.145103 0.404267 -2.388853 -12.282968 -13.873919 -5.051003 36.248405 4.921533 5.614186 -31.117065 3.100317 3.318958 
30.505260 51.303349 -68.796616 3.995592 -0.393773 -3.747553 17.458389 1.922993 -6.119419 -28.520374 -0.423758 -1.694776 -6.050447 14.624926 8.941683 26.543175 -31.483006 14.041645 -1.931697 -12.150426 0.122601 -59.394234 -7.402426 1.373757 -50.120510 7.725139 8.202054 8.524705 12.647240 -21.780653 4.400109 13.372850 -0.765886 54.740784 10.897021 7.708066 49.736790 -7.650302 8.060584 -8.534408 -12.637552 28.734234 -9.498554 22.940813 2.631725 27.391346 -5.459992 -4.524934 -21.923201 0.187699 -2.499073 -12.321439 -13.775562 -5.141376 36.348938 4.901702 5.627132 -31.142056 3.304398 3.434904 
30.413336 51.310471 -68.792274 4.190968 -0.494562 -3.669084 17.132751 2.150452 -6.072084 -28.529892 -0.346640 -1.705259 -6.007565 14.596215 8.917655 26.409542 -31.498684 14.006268 -1.931697 -12.150426 0.122601 -60.153427 -7.427705 0.596840 -49.922798 7.682715 8.122269 8.524705 12.647240 -21.321667 4.400109 13.372850 -0.765886 54.466614 10.934777 7.848824 49.871262 -7.673883 8.101722 -8.534408 -12.637552 28.783062 -9.872140 23.200294 2.606041 27.510561 -5.463651 -4.527384 -21.933897 -0.040176 -2.583672 -12.468968 -13.571926 -5.270495 36.368320 4.901732 5.638547 -31.113626 3.443183 3.536106 
30.337820 51.305515 -68.796616 4.288861 -0.639497 -3.612729 16.906973 2.487944 -6.050051 -28.676252 -0.374378 -1.730697 -5.629189 14.554424 9.040359 26.082102 -31.385832 14.244144 -1.931697 -12.150426 0.122601 -60.836208 -7.214993 -0.039951 -49.860390 7.670082 8.101151 8.524705 12.647240 -20.970102 4.400109 13.372850 -0.765886 54.166298 10.813884 8.198580 49.850727 -7.671964 8.100839 -8.534408 -12.637552 29.027201 -10.143994 23.460752 2.561340 27.651833 -5.449883 -4.555951 -22.059769 -0.273242 -2.661691 -12.488229 -13.317743 -5.339602 36.368320 4.901736 5.638548 -31.178127 3.167265 3.359234 
30.267565 51.311710 -68.796303 4.250702 -0.636231 -3.425809 16.808725 2.663231 -6.203608 -28.754314 -0.452581 -1.778708 -5.353085 14.679533 9.095082 25.867165 -31.560562 14.313925 -1.931697 -12.150426 0.122601 -61.418121 -7.075931 -0.205857 -49.995880 7.699657 8.151155 8.524705 12.647240 -20.022840 4.400109 13.372850 -0.765886 53.993805 10.790951 8.393119 49.934479 -7.693399 8.140005 -8.534408 -12.637552 28.900248 -10.309285 23.497580 2.428113 27.861963 -5.444137 -4.573856 -22.235313 -0.459826 -2.723570 -12.409233 -13.209246 -5.298893 36.406227 4.912108 5.654154 -31.391529 2.769174 3.098466 
30.187092 51.323467 -68.811470 4.309820 -0.508871 -3.250625 16.699419 2.620068 -6.321722 -28.676037 -0.434845 -1.811029 -5.374668 14.872397 9.022453 25.709980 -31.811518 14.213737 -1.931697 -12.150426 0.122601 -61.926403 -7.256148 -0.314286 -50.078625 7.714590 8.183034 8.524705 12.647240 -19.173231 4.400109 13.372850 -0.765886 53.834854 10.964970 8.398808 50.090515 -7.724604 8.191069 -8.534408 -12.637552 28.704935 -10.614030 23.433876 2.348710 28.113728 -5.425583 -4.601195 -22.699986 -0.969278 -2.891852 -12.506283 -13.208484 -5.117558 36.457363 4.901762 5.636604 -31.518198 2.788218 3.094470 
30.128908 51.328114 -68.822609 4.436480 -0.336153 -3.238882 16.633242 2.440153 -6.153015 -28.568888 -0.402812 -1.746768 -5.892568 14.968792 8.819233 25.786116 -31.656336 13.992931 -1.931697 -12.150426 0.122601 -62.284893 -7.712927 -0.393392 -49.922798 7.682715 8.122269 8.524705 12.647240 -18.870495 4.400109 13.372850 -0.765886 53.672520 11.305262 8.284926 50.122742 -7.737051 8.208475 -8.534408 -12.637552 28.763529 -10.857107 23.294989 2.407963 28.414932 -5.406008 -4.643133 -23.530319 -1.574732 -3.090786 -12.751223 -13.365744 -5.128197 36.566559 4.892009 5.652760 -31.485662 3.081676 3.275447 
30.086504 51.334614 -68.817657 4.504577 -0.271577 -3.263877 16.822710 2.289911 -5.755642 -28.354565 -0.371093 -1.633395 -7.303777 15.154074 8.379656 26.631250 -31.460384 13.426442 -1.931697 -12.150426 0.122601 -62.495792 -8.397438 -0.001542 -49.786320 7.646643 8.064982 8.524705 12.647240 -18.440807 4.400109 13.372850 -0.765886 53.508667 11.909918 8.017559 50.101192 -7.728959 8.200117 -8.534408 -12.637552 29.105324 -11.032557 23.236597 2.494388 28.754564 -5.391246 -4.699305 -24.235811 -1.893454 -3.190939 -12.899417 -13.416653 -5.207225 36.734852 4.882409 5.674106 -31.514507 3.000399 3.228251 
30.041935 51.318512 -68.828178 4.534063 -0.476661 -3.251047 16.777529 2.518789 -5.465371 -28.403875 -0.451800 -1.563323 -7.291252 15.274328 8.250084 26.518690 -31.380901 13.234689 -1.931697 -12.150426 0.122601 -62.770512 -8.361504 0.481933 -49.859390 7.663786 8.093752 8.524705 12.647240 -17.718155 4.400109 13.372850 -0.765886 53.414066 11.883169 7.905416 50.184971 -7.749972 8.238216 -8.534408 -12.637552 29.144390 -11.305674 23.489183 2.467145 29.124760 -5.376481 -4.728943 -24.728386 -2.324951 -3.351279 -12.973451 -13.089709 -5.061565 36.912640 4.872814 5.705981 -31.609230 2.674563 3.013801 
30.012842 51.277973 -68.845520 4.593023 -0.510360 -3.156541 16.349674 2.869734 -5.808652 -28.656828 -0.349075 -1.694814 -5.867926 14.805622 8.677072 25.059895 -31.085670 13.968704 -1.931697 -12.150426 0.122601 -63.669350 -7.719652 0.266140 -50.131187 7.729490 8.211106 8.524705 12.647240 -17.181042 4.400109 13.372850 -0.765886 52.934315 11.465013 8.614088 50.290321 -7.778851 8.286125 -8.534408 -12.637552 29.066263 -11.620451 23.514072 2.432957 29.486599 -5.342589 -4.791842 -25.265665 -2.966587 -3.611150 -13.131271 -13.023249 -4.999127 37.091484 4.868479 5.691730 -31.637371 2.594484 2.955536 
29.997057 51.262806 -68.851707 4.720626 -0.490241 -2.960603 16.081287 3.088050 -5.982106 -28.695412 -0.301636 -1.770365 -5.434653 14.630609 8.809452 24.384863 -30.978979 14.250708 -1.931697 -12.150426 0.122601 -64.329559 -7.379511 0.638944 -50.486069 7.807391 8.350494 8.524705 12.647240 -16.780653 4.400109 13.372850 -0.765886 52.534740 11.503617 9.074648 50.278614 -7.768301 8.269604 -8.534408 -12.637552 29.251812 -11.998516 23.430286 2.362620 29.824987 -5.337409 -4.821036 -25.715118 -3.637050 -3.928050 -13.309516 -13.074963 -5.135995 37.279762 4.843413 5.748638 -31.715864 2.594631 2.958685 
29.982513 51.262806 -68.850464 4.857525 -0.614637 -2.914143 15.983479 3.252777 -5.512064 -28.579300 -0.467222 -1.639329 -5.801101 14.787473 8.589715 24.259964 -30.892248 14.019346 -1.931697 -12.150426 0.122601 -64.413368 -7.461720 1.886247 -50.736904 7.860679 8.441771 8.524705 12.647240 -16.350964 4.400109 13.372850 -0.765886 52.435829 11.780251 8.899091 50.227058 -7.759813 8.248871 -8.534408 -12.637552 29.622902 -12.371477 23.541771 2.414881 30.164841 -5.313686 -4.883644 -26.105406 -4.293736 -4.239565 -13.522975 -12.907447 -5.056325 37.497196 4.833687 5.774142 -31.843729 2.501110 2.882323 
29.966726 51.237431 -68.858513 4.974095 -0.561296 -3.009289 16.194683 3.004994 -4.913286 -28.218822 -0.452158 -1.455731 -7.345031 15.025396 8.133853 24.862020 -30.600857 13.562358 -1.931697 -12.150426 0.122601 -64.301430 -8.160324 3.514311 -50.893909 7.896273 8.511395 8.524705 12.647240 -15.696668 4.400109 13.372850 -0.765886 52.358009 12.528584 8.292154 50.111866 -7.733313 8.209168 -8.534408 -12.637552 29.730324 -12.615605 23.454025 2.552800 30.483837 -5.303563 -4.909806 -26.557169 -4.844366 -4.501014 -13.834192 -12.906158 -4.846102 37.715687 4.813744 5.797045 -31.915064 2.474404 2.865385 
29.954966 51.212978 -68.878937 5.003499 -0.524251 -2.967252 16.169655 3.027098 -4.922182 -28.169418 -0.246293 -1.472857 -7.750690 14.993498 7.981038 25.096378 -30.568119 13.315203 -1.931697 -12.150426 0.122601 -64.721260 -8.151013 4.464594 -51.218899 7.969429 8.650935 8.524705 12.647240 -15.022839 4.400109 13.372850 -0.765886 51.917953 12.721071 8.449596 50.111866 -7.733313 8.209168 -8.534408 -12.637552 29.544779 -12.859982 23.336702 2.514816 30.783243 -5.288858 -4.942755 -26.939621 -5.223853 -4.681414 -14.067240 -12.914598 -4.736864 38.012131 4.794593 5.845709 -31.989515 2.519708 2.890073 
29.957443 51.179859 -68.898743 5.023641 -0.659965 -2.861824 16.227509 3.265207 -4.853719 -28.179041 -0.209070 -1.487539 -8.289763 15.088752 7.748554 25.510790 -30.519150 12.935067 -1.931697 -12.150426 0.122601 -64.992767 -8.183540 5.261058 -51.438679 8.013660 8.733825 8.524705 12.647240 -14.934950 4.400109 13.372850 -0.765886 51.605419 12.766459 8.583534 50.279640 -7.774542 8.277047 -8.534408 -12.637552 29.437361 -13.061638 23.331221 2.465939 30.983809 -5.264864 -4.992870 -27.162455 -5.221501 -4.672808 -14.237022 -12.811190 -4.765830 38.369190 4.759495 5.895084 -32.062683 2.484981 2.843689 
